<?xml version="1.0" encoding="UTF-8" standalone="no"?>
<!-- Created with Inkscape (http://www.inkscape.org/) -->

<svg
   xmlns:dc="http://purl.org/dc/elements/1.1/"
   xmlns:cc="http://creativecommons.org/ns#"
   xmlns:rdf="http://www.w3.org/1999/02/22-rdf-syntax-ns#"
   xmlns:svg="http://www.w3.org/2000/svg"
   xmlns="http://www.w3.org/2000/svg"
   xmlns:sodipodi="http://sodipodi.sourceforge.net/DTD/sodipodi-0.dtd"
   xmlns:inkscape="http://www.inkscape.org/namespaces/inkscape"
   width="41.772202mm"
   height="31.135633mm"
   viewBox="0 0 41.772202 31.135633"
   version="1.1"
   id="svg8"
   inkscape:version="0.92.3 (2405546, 2018-03-11)"
   sodipodi:docname="Dig-IT.svg">
  <defs
     id="defs2" />
  <sodipodi:namedview
     id="base"
     pagecolor="#ffffff"
     bordercolor="#666666"
     borderopacity="1.0"
     inkscape:pageopacity="0.0"
     inkscape:pageshadow="2"
     inkscape:zoom="1.979899"
     inkscape:cx="116.35691"
     inkscape:cy="81.448012"
     inkscape:document-units="mm"
     inkscape:current-layer="layer1"
     showgrid="false"
     fit-margin-top="1"
     fit-margin-bottom="1"
     fit-margin-left="1"
     fit-margin-right="1"
     inkscape:window-width="1059"
     inkscape:window-height="900"
     inkscape:window-x="861"
     inkscape:window-y="153"
     inkscape:window-maximized="0" />
  <metadata
     id="metadata5">
    <rdf:RDF>
      <cc:Work
         rdf:about="">
        <dc:format>image/svg+xml</dc:format>
        <dc:type
           rdf:resource="http://purl.org/dc/dcmitype/StillImage" />
        <dc:title></dc:title>
      </cc:Work>
    </rdf:RDF>
  </metadata>
  <g
     inkscape:label="Layer 1"
     inkscape:groupmode="layer"
     id="layer1"
     transform="translate(-34.249904,-75.511313)">
    <g
       transform="matrix(0.35277777,0,0,-0.35277777,25.541495,118.15814)"
       inkscape:label="ink_ext_XXXXXX"
       id="g18">
      <g
         transform="scale(0.1)"
         id="g20">
        <path
           inkscape:connector-curvature="0"
           id="path26"
           style="fill:#89d150;fill-opacity:1;fill-rule:nonzero;stroke:none"
           d="m 694.895,495.84 -0.098,-94.602 v -7.898 h -20.305 c -220.496,0 -399.293,178.797 -399.293,399.297 v 164.402 h 164.5 c 67.696,0 131.399,-16.902 187.297,-46.601 -42.598,-125.504 -21,-267.899 64.805,-376.2 l -228.703,228.7 c -4.903,4.898 -22.5,-12.801 -17.703,-17.7 l 4.5,-4.504 245,-244.894" />
        <path
           inkscape:connector-curvature="0"
           id="path28"
           style="fill:#89d150;fill-opacity:1;fill-rule:nonzero;stroke:none"
           d="M 838.898,557.738 V 393.34 H 719.797 v 4.898 l 0.098,102.801 -0.196,1.598 c -10,10.101 -19.304,20.703 -27.898,31.601 -85.805,108.301 -107.403,250.696 -64.805,376.2 126.102,-67.098 211.902,-199.903 211.902,-352.7" />
        <path
           inkscape:connector-curvature="0"
           id="path30"
           style="fill:#89d150;fill-opacity:1;fill-rule:nonzero;stroke:none"
           d="m 958,500.938 0.098,-96.997 V 393.34 h -109.2 l 106.301,106.199 c 0.992,0.996 2,1.996 2.899,2.996 L 958,500.938" />
        <path
           inkscape:connector-curvature="0"
           id="path32"
           style="fill:#6e90d2;fill-opacity:1;fill-rule:nonzero;stroke:none"
           d="M 1402.6,957.039 V 792.637 c 0,-220.5 -178.7,-399.297 -399.31,-399.297 h -20.192 v 5.601 L 983,495.84 1231.8,744.637 c 4.9,4.902 4.9,12.797 0,17.601 -4.9,4.899 -12.8,4.899 -17.71,0 l -227.992,-228 c 85.802,108.301 107.402,250.696 64.802,376.2 55.8,29.699 119.6,46.601 187.3,46.601 h 164.4" />
        <path
           inkscape:connector-curvature="0"
           id="path34"
           style="fill:#6e90d2;fill-opacity:1;fill-rule:nonzero;stroke:none"
           d="m 986.098,534.238 c -8.703,-10.898 -18,-21.5 -28,-31.703 -0.899,-1 -1.907,-2 -2.899,-2.996 L 848.898,393.34 h -10 v 164.398 c 0,152.797 85.899,285.602 212.002,352.7 42.6,-125.504 21,-267.899 -64.802,-376.2" />
        <path
           inkscape:connector-curvature="0"
           id="path36"
           style="fill:#18424f;fill-opacity:1;fill-rule:nonzero;stroke:none"
           d="m 986.098,534.238 c -8.703,-10.898 -18,-21.5 -28,-31.703 -0.899,-1 -1.907,-2 -2.899,-2.996 L 848.898,393.34 l -10,-10 -10,10 -106.203,106.199 c -0.992,0.996 -2,1.996 -2.996,3.098 -10,10.101 -19.304,20.703 -27.898,31.601 -85.805,108.301 -107.403,250.696 -64.805,376.2 19.004,56.203 50.899,109.002 95.699,153.802 l 116.203,116.3 116.301,-116.3 c 44.801,-44.8 76.701,-97.599 95.701,-153.802 42.6,-125.504 21,-267.899 -64.802,-376.2" />
        <path
           inkscape:connector-curvature="0"
           id="path38"
           style="fill:#5ca197;fill-opacity:1;fill-rule:nonzero;stroke:none"
           d="m 719.707,502.578 c -2.121,2.164 -4.215,4.348 -6.277,6.551 2.058,-2.184 4.148,-4.352 6.269,-6.492 v 0 l 0.008,-0.059" />
        <path
           inkscape:connector-curvature="0"
           id="path40"
           style="fill:#479b7f;fill-opacity:1;fill-rule:nonzero;stroke:none"
           d="m 720.645,501.621 c -0.317,0.324 -0.625,0.633 -0.938,0.957 l -0.008,0.059 c 0.313,-0.348 0.629,-0.684 0.946,-1.016" />
        <path
           inkscape:connector-curvature="0"
           id="path42"
           style="fill:#5ca197;fill-opacity:1;fill-rule:nonzero;stroke:none"
           d="m 695.648,529.434 c -1.324,1.621 -2.64,3.254 -3.933,4.89 l 0.086,-0.086 v 0 c 1.265,-1.609 2.551,-3.211 3.847,-4.804" />
        <path
           inkscape:connector-curvature="0"
           id="path44"
           style="fill:#479b7f;fill-opacity:1;fill-rule:nonzero;stroke:none"
           d="m 691.801,534.238 -0.086,0.086 c -85.738,108.231 -107.289,250.621 -64.762,376.071 0.012,-0.004 0.016,-0.008 0.024,-0.012 -14.133,-41.656 -21.192,-85.164 -21.18,-128.68 v 0 c 0.023,-87.57 28.691,-175.125 86.004,-247.465" />
        <path
           inkscape:connector-curvature="0"
           id="path46"
           style="fill:#307e7b;fill-opacity:1;fill-rule:nonzero;stroke:none"
           d="M 838.93,393.352 H 828.898 L 722.68,499.574 c -0.68,0.68 -1.364,1.367 -2.035,2.047 -0.317,0.332 -0.633,0.668 -0.946,1.016 v 0 c -2.121,2.14 -4.211,4.308 -6.269,6.492 -6.196,6.617 -12.117,13.383 -17.782,20.305 -1.296,1.593 -2.582,3.195 -3.847,4.804 v 0 c -57.313,72.34 -85.981,159.895 -86.004,247.465 -0.012,43.516 7.047,87.024 21.18,128.68 C 753.059,843.262 838.93,710.559 838.93,557.758 V 393.352" />
        <path
           inkscape:connector-curvature="0"
           id="path48"
           style="fill:#557b85;fill-opacity:1;fill-rule:nonzero;stroke:none"
           d="m 848.969,393.352 h -0.055 l 58.066,58.015 -58.011,-58.015" />
        <path
           inkscape:connector-curvature="0"
           id="path50"
           style="fill:#687e9b;fill-opacity:1;fill-rule:nonzero;stroke:none"
           d="m 958.098,502.512 v 0.023 c 9.179,9.363 17.761,19.063 25.836,29.02 -8.059,-9.996 -16.668,-19.684 -25.836,-29.043" />
        <path
           inkscape:connector-curvature="0"
           id="path52"
           style="fill:#557b85;fill-opacity:1;fill-rule:nonzero;stroke:none"
           d="m 957.813,502.223 c 0.097,0.105 0.191,0.211 0.285,0.312 v -0.023 c -0.094,-0.094 -0.192,-0.192 -0.285,-0.289" />
        <path
           inkscape:connector-curvature="0"
           id="path54"
           style="fill:#3f617d;fill-opacity:1;fill-rule:nonzero;stroke:none"
           d="m 848.914,393.352 h -9.984 v 164.406 c 0,152.812 85.879,285.515 211.98,352.637 42.89,-126.524 20.59,-270.278 -66.976,-378.84 -8.075,-9.957 -16.657,-19.657 -25.836,-29.02 v 0 c -0.094,-0.101 -0.188,-0.207 -0.285,-0.312 -0.872,-0.887 -1.743,-1.766 -2.625,-2.649 L 906.98,451.367 848.914,393.352" />
        <path
           inkscape:connector-curvature="0"
           id="path56"
           style="fill:#ffffff;fill-opacity:1;fill-rule:nonzero;stroke:none"
           d="m 838.645,965.969 c -5.868,0 -11.747,-2.235 -16.219,-6.707 -8.938,-8.942 -8.938,-23.492 0,-32.434 8.945,-8.945 23.496,-8.945 32.441,0 8.934,8.942 8.934,23.492 0,32.434 -4.472,4.472 -10.351,6.707 -16.222,6.707 z m 0,-70.832 c -12.274,0 -24.551,4.672 -33.895,14.015 -18.691,18.688 -18.691,49.098 0,67.786 18.691,18.691 49.102,18.691 67.793,0 18.691,-18.688 18.691,-49.098 0,-67.786 -9.348,-9.343 -21.621,-14.015 -33.898,-14.015" />
        <path
           inkscape:connector-curvature="0"
           id="path58"
           style="fill:#ffffff;fill-opacity:1;fill-rule:nonzero;stroke:none"
           d="m 838.91,383.34 c -6.906,0 -12.5,4.82 -12.5,10.781 v 513.774 c 0,5.957 5.594,10.781 12.5,10.781 6.903,0 12.5,-4.824 12.5,-10.781 V 394.121 c 0,-5.961 -5.597,-10.781 -12.5,-10.781" />
        <path
           inkscape:connector-curvature="0"
           id="path60"
           style="fill:#ffffff;fill-opacity:1;fill-rule:nonzero;stroke:none"
           d="m 433.254,802.773 c -12.645,0 -22.93,-10.289 -22.93,-22.929 0,-12.649 10.285,-22.938 22.93,-22.938 12.648,0 22.93,10.289 22.93,22.938 0,12.64 -10.282,22.929 -22.93,22.929 z m 0,-70.867 c -26.426,0 -47.93,21.504 -47.93,47.938 0,26.429 21.504,47.929 47.93,47.929 26.426,0 47.93,-21.5 47.93,-47.929 0,-26.434 -21.504,-47.938 -47.93,-47.938" />
        <path
           inkscape:connector-curvature="0"
           id="path62"
           style="fill:#ffffff;fill-opacity:1;fill-rule:nonzero;stroke:none"
           d="m 771.449,354.648 c -6.906,0 -12.5,5.59 -12.5,12.5 v 272.02 l -48.125,48.242 c -4.875,4.883 -4.863,12.805 0.02,17.676 4.89,4.875 12.801,4.875 17.676,-0.02 l 51.777,-51.902 c 2.344,-2.344 3.652,-5.519 3.652,-8.828 V 367.148 c 0,-6.91 -5.597,-12.5 -12.5,-12.5" />
        <path
           inkscape:connector-curvature="0"
           id="path64"
           style="fill:#ffffff;fill-opacity:1;fill-rule:nonzero;stroke:none"
           d="m 655.922,729.617 c 0,23.481 19.031,42.52 42.519,42.52 23.477,0 42.52,-19.039 42.52,-42.52 0,-23.484 -19.043,-42.519 -42.52,-42.519 -23.488,0 -42.519,19.035 -42.519,42.519" />
        <path
           inkscape:connector-curvature="0"
           id="path66"
           style="fill:#ffffff;fill-opacity:1;fill-rule:nonzero;stroke:none"
           d="m 719.895,501.039 -0.098,-102.801 v -4.898 h -25 v 7.898 l 0.098,94.602 -245,244.894 -4.5,4.504 c -4.797,4.899 12.8,22.598 17.703,17.7 l 228.703,-228.7 c 8.594,-10.898 17.898,-21.5 27.898,-31.601 l 0.196,-1.598" />
        <path
           inkscape:connector-curvature="0"
           id="path68"
           style="fill:#ffffff;fill-opacity:1;fill-rule:nonzero;stroke:none"
           d="m 719.699,502.637 c -10,10.101 -19.304,20.703 -27.898,31.601 l 24.394,-24.398 c 1.903,-1.902 3.203,-4.504 3.504,-7.203" />
        <path
           inkscape:connector-curvature="0"
           id="path70"
           style="fill:#ffffff;fill-opacity:1;fill-rule:nonzero;stroke:none"
           d="m 1023.14,729.633 c 0,23.484 -19.04,42.519 -42.523,42.519 -23.484,0 -42.519,-19.035 -42.519,-42.519 0,-23.481 19.035,-42.52 42.519,-42.52 23.483,0 42.523,19.039 42.523,42.52" />
        <path
           inkscape:connector-curvature="0"
           id="path72"
           style="fill:#ffffff;fill-opacity:1;fill-rule:nonzero;stroke:none"
           d="M 1231.8,744.637 983,495.84 l 0.098,-96.899 v -5.601 h -25 v 10.601 l -0.098,96.997 0.098,1.601 c 10,10.199 19.297,20.801 28,31.699 l 227.992,228 c 4.91,4.899 12.81,4.899 17.71,0 4.9,-4.804 4.9,-12.699 0,-17.601" />
        <path
           inkscape:connector-curvature="0"
           id="path74"
           style="fill:#ffffff;fill-opacity:1;fill-rule:nonzero;stroke:none"
           d="m 986.098,534.238 c -8.703,-10.898 -18,-21.5 -28,-31.699 0.304,2.797 1.601,5.399 3.605,7.301 l 24.395,24.398" />
        <path
           inkscape:connector-curvature="0"
           id="path76"
           style="fill:#ffffff;fill-opacity:1;fill-rule:nonzero;stroke:none"
           d="m 1246.37,802.723 c -12.65,0 -22.94,-10.289 -22.94,-22.934 0,-12.641 10.29,-22.93 22.94,-22.93 12.65,0 22.93,10.289 22.93,22.93 0,12.645 -10.28,22.934 -22.93,22.934 z m 0,-70.864 c -26.44,0 -47.94,21.5 -47.94,47.93 0,26.43 21.5,47.934 47.94,47.934 26.43,0 47.93,-21.504 47.93,-47.934 0,-26.43 -21.5,-47.93 -47.93,-47.93" />
        <path
           inkscape:connector-curvature="0"
           id="path78"
           style="fill:#ffffff;fill-opacity:1;fill-rule:nonzero;stroke:none"
           d="m 905.773,354.648 c -6.902,0 -12.5,5.59 -12.5,12.5 v 277.188 c 0,3.309 1.309,6.484 3.653,8.828 l 51.554,51.688 c 4.872,4.894 12.782,4.894 17.676,0.019 4.883,-4.871 4.903,-12.781 0.02,-17.676 l -47.903,-48.027 v -272.02 c 0,-6.91 -5.593,-12.5 -12.5,-12.5" />
      </g>
    </g>
  </g>
</svg>
